<svg id="Layer_1" data-name="Layer 1" xmlns="http://www.w3.org/2000/svg" viewBox="0 0 1408.51 1058.74"><defs><style>.cls-1{fill:#136835;}.cls-2{fill:#ec2227;}.cls-3{fill:#179b49;}.cls-4{fill:#337141;}.cls-5{fill:#75b37c;}.cls-6{fill:#e3f4fa;}</style></defs><title>5</title><path class="cls-1" d="M565.37,437.18c-.56,2.29-2.74,2.63-4.38,3.41-18.85,8.83-37.73,17.56-56.21,27.15-21.27,11.05-42.47,22.27-62.21,36a123.78,123.78,0,0,0-22.87,19.93c-11.1,12.67-25.48,20.28-41.95,23.54-18.52,3.68-37.07,2.56-55.57-.71C296,541.86,271,533,246.25,523.64c-1.63-.62-3.22-1.87-5.43-.76.16,2.06,1.88,3,3.2,4.06,27.69,22.13,58.88,34.63,94.69,34.64,9.16,0,18.29-.05,27.36-1.63,1.7-.29,3.85-.74,4.9.74l.15.25a2.43,2.43,0,0,1,.23.54c.58,1.88-1.4,3.16-2.6,4.41-18.45,19.42-37.32,38.5-53.61,59.8-21.23,27.76-45.51,53.13-64.43,82.67-7.81,12.18-19.56,18.81-32.75,23.21-15.72,5.23-32.05,7.55-48.45,9.41-15.69,1.78-31.47,2.78-47.16,4.61a18.22,18.22,0,0,1-3.92.1c33.17,7.45,67.2,8.48,101.3.06a22.38,22.38,0,0,1,2.93-.6c1.43-.16,2.42.05,2.93.59a1,1,0,0,1,.21.26c.41.65.29,1.65-.37,3-2.17,4.31-4.7,8.42-7.15,12.58-11.89,20.25-23.94,40.49-32.68,62.3-12.82,32-28.51,62.72-41.94,94.44-8.92,21.06-15,43-21.57,64.88-3.24,10.84-6.21,21.76-9.23,32.67-.48,1.74-.41,4.08-3.07,4.38-.06,0-.17-.21-.21-.34a2.63,2.63,0,0,1,0-.49c5.43-32.61,8.81-65.46,8.76-98.49-.08-47-5.22-93.18-26.79-136C81.37,764.76,68,747.13,49.11,734.25a12.76,12.76,0,0,1-3.37-3.58v-3c1.42-2.42,3.88-3.51,6.19-4.78,36.22-19.87,71-41.83,101.71-69.76,20.31-18.5,38.34-38.88,49.71-64.23,11.51-25.68,14-51.76,1.54-78a80.35,80.35,0,0,0-6-10.3c-3.68-5.53-3.56-6.89,1.89-11,12.42-9.43,26.3-16.1,40.8-21.57,31.75-12,64.82-18.38,98.28-23,44-6,88.32-8.55,132.75-9.36,28-.51,55.9-.12,83.84.66,1.48,0,3-.13,4.47-.21a2.68,2.68,0,0,0,.91.29C563,436.62,564.24,436.28,565.37,437.18Z" transform="translate(-45.74 -180.31)"/><path class="cls-2" d="M907,180.31c11.61,2,23.09,4.34,34,9,43.27,18.47,70.65,63.87,65.63,109.07-5.33,47.92-40.53,86.6-87.08,95.68-49,9.55-96.7-11.48-120.3-53-32.29-56.83-6.37-128.74,55-152.9,10-3.93,20.35-5.85,30.76-7.83Z" transform="translate(-45.74 -180.31)"/><path class="cls-1" d="M1258.86,1019.48c-1.58,22.57-1.2,45.19-2.72,67.74-.4,6.15-.06,12.32-.13,18.47-.41,31.12-2.14,62.13-6.88,92.92-.2,1.31-.1,2.74-1,3.83-1.19,1.53-1.88.68-2.32-.69-2.89-20.74-7.59-41.11-13.07-61.29-8.63-31.84-19.7-62.7-37.79-90.58-13.23-20.4-29.35-37.85-52.19-47.77-22.34-9.7-44.83-9.34-67.31-.24l-3.53,1.44c1.53-10.09,3.27-19.85,4.45-29.69,3.94-32.56,4.69-65-5.52-96.75-14-43.58-44.76-67.65-89.21-75.34a165.46,165.46,0,0,0-28.31-2.12,183.56,183.56,0,0,0-28.4,2.28c3.81-6.73,7.5-12.93,10.89-19.27,19.92-37.2,32.32-77,40-118.31a605.88,605.88,0,0,0,9.55-100.6,762.74,762.74,0,0,0-12.26-149.25,8.42,8.42,0,0,1-.08-1c5.5,2.52,9.3,7.17,13.53,11.17a437.79,437.79,0,0,1,50.33,56c11.65,15.6,25.22,29.65,38.26,44.09,12.46,13.79,22.34,29.41,33,44.46,6,8.41,11.87,16.88,16.71,26a37.06,37.06,0,0,1,3.4,25.67c-4,19.29-13.15,36.19-24.36,52.1-15.84,22.48-35.31,41.53-56.26,59.17-.76.64-1.6,1.2-2.3,1.92-1.2,1.24-2.37,2.67-1.07,4.35,1.09,1.41,2.74.89,4.14.26a54.3,54.3,0,0,0,6.6-3.54c26.33-16.38,47.85-37.54,63.61-64.34A160.84,160.84,0,0,0,1134.49,634c.33-1.12.66-2.24,1-3.34s.91-2.5,2.24-2.8l.25,0c1.62-.21,2.23,1.26,2.83,2.38,2.48,4.52,4.78,9.14,7.34,13.63a281.59,281.59,0,0,0,17.86,27.06c6.12,8.37,9.91,18.08,13.81,27.62,13.46,32.81,25.22,66.28,38.66,99.1a26.14,26.14,0,0,1,.31,18.12c-4.52,14.16-10.14,27.73-18.86,40-10.63,14.93-18.84,31.4-28.62,46.88-7.77,12.3-17,23.44-26.66,34.21-2,2.23-4.21,4.33-5.57,7-1.43,2.89-1.72,6,1.24,8.08,2.77,1.94,5.71,1.31,8.24-.92a15.46,15.46,0,0,0,2.25-2.66c12-16.41,24.44-32.42,37.25-48.2,11.74-14.44,19.84-31.13,26-48.66,3.16-8.94,6.31-17.9,9.66-26.77a19.41,19.41,0,0,1,1.57-3.66c.6-.92,1.18-1.4,1.75-1.45a1,1,0,0,1,.59.09,3.16,3.16,0,0,1,1.38,1.43,10.15,10.15,0,0,1,1,3.85c3.92,26.69,8.61,53.21,15.68,79.3,6.36,23.51,9.61,47.57,11.41,71.86C1258.21,990.6,1259.87,1005.06,1258.86,1019.48Z" transform="translate(-45.74 -180.31)"/><path class="cls-1" d="M1454.26,779.4c-13.63,5.11-26.19,12.12-37.09,21.85-22.53,20.13-34.57,45.79-39.62,75.16-2.44,14.13-1.79,28.5-3.63,42.7-4,30.88-11.2,61-19.87,90.88-8.54,29.44-16.89,59-30.13,86.83-18.05,37.93-40.66,73.07-65.21,107a7.5,7.5,0,0,1-1.09,1c-1.71-1.95-.91-4.11-.4-6.17a579,579,0,0,0,12.51-66.19c1.62-13,2.76-26.11,3.81-39.2,1-12,.49-23.94.81-35.91.69-25.35-1.46-50.51-5.13-75.57-3.84-26.17-6.71-52.47-9.64-78.75-2.4-21.64-7.6-42.57-14-63.25-2.19-7-4.22-14-6.58-21-.58-1.66-1.78-3.79,0-5.06,1.43-1,3.14.46,4.55,1.28a231.56,231.56,0,0,0,38,17.62,260.3,260.3,0,0,0,66.23,14.12c1.26.11,3.11.56,3.33-1.14.26-2-1.87-2-3.19-2.45-20.41-6.68-40.66-13.87-60.5-22.14-15.83-6.6-31.44-13.61-46-22.94A33,33,0,0,1,1227.26,779c-6.46-21.54-13.58-42.85-22.77-63.41-3.34-7.45-7.15-14.66-10.77-22-7.71-15.5-15.48-31-22.51-46.79a184.66,184.66,0,0,0-13.08-24.71c-.77-1.22-2.29-2.73-1.12-4.14l.17-.18.08-.07c1.22-1.13,2.8.17,4.12.81,14.55,7.06,29.32,13.61,44.77,18.41,17.19,5.32,34.57,10,52.73,10.43,2.49.06,6.53,1.15,7-1.88.53-3.55-3.83-3.45-6.33-4.15-28.07-7.87-55.93-16.44-82.59-28.33-12.44-5.54-25.1-10.87-35.66-19.87-8.33-7.1-14.17-16.29-20.94-24.7-21.82-27.11-40.94-56.28-62.79-83.35-21.55-26.72-45.35-51.4-70.32-74.94-1.67-1.57-2-1.9-1.75-3.09.07-.34.23-.76.4-1.3,79.77,17.94,155.1,48.19,228.82,82.8q72.82,34.19,142.32,74.7c1.35.79,3.14,1.13,4,3.17-12.62,2.37-25,5.24-36.67,10.38a73.73,73.73,0,0,0-12.61,7c-14.61,10.14-19.56,23.86-14.45,40.86s15.77,30.59,27.3,43.54c25.36,28.47,55.23,51.86,85.31,75,13.33,10.23,27.09,19.88,39.91,30.75C1451.53,775.4,1453.53,776.72,1454.26,779.4Z" transform="translate(-45.74 -180.31)"/><path class="cls-1" d="M556.09,536.48c-19.75,61.74-46.85,120.42-75.85,178.27-2.82,5.63-7.21,6.11-11.33,1.26-6.7-7.89-13.73-15.41-22.49-21.07-15.95-10.31-30.21-8.83-43.53,4.8-12,12.28-18.66,27.7-24.53,43.47-11.24,30.16-17.59,61.54-22.87,93.16-4,23.77-6.83,47.7-8.95,71.7-.31,3.57-1.67,6.21-5.05,7.18-3.6,1-6.36-.53-8.41-3.72-5.6-8.68-11.82-16.85-19.55-23.81-21-19-43.82-22.13-69.45-9.51-20.22,10-36.29,25.09-51,41.77-30.07,34.14-53.38,72.76-74.24,113-.84,1.62-1.64,3.27-2.39,4.93-1.34,3-3.23,5.43-6.82,4.19s-3.18-4.6-2.69-7.62c.67-4.25,2-8.4,1.85-12.76,1.86-.77,2.15,1,3,1.87,2.93,2.82,5.18,2.52,6.88-1.23a73,73,0,0,0,3.56-10.38c7.83-27.62,19.11-54,30-80.43,7.7-18.79,13.81-38.18,21.72-56.9a342.52,342.52,0,0,1,21.29-41.78c16-26.91,32-53.77,47.27-81.1,3.25-5.81,6-11.87,9-17.83.64-1.28.92-3.28,2.72-3.18,2,.12,2.27,2.14,2.66,3.75,4.56,18.5,10.92,36.33,20.07,53.1,8.19,15.06,18,28.82,32.42,38.62,1.66,1.12,3.67,3.65,5.6,1.77s-.47-4-1.56-5.68C297,796.18,282,769.35,272.11,739.94c-.32-1-.59-1.91-.93-2.85-5.29-14.64-4.52-28,4.74-41.58,12.7-18.57,25.15-37.15,40.81-53.48,13.59-14.16,27.35-28.17,40.68-42.57,8.91-9.65,17.81-19.33,26.38-29.29,1.18-1.37,2.23-3.95,4.37-3.06l.16.07a2.32,2.32,0,0,1,.31.19c1.6,1.06,1.08,3.47.8,5.31a352.57,352.57,0,0,0-3.69,61.68c.05,1.94-.48,4,1,5.81,2.3-.64,2.2-2.76,2.58-4.39,5.64-23.47,13.17-46.43,18.78-69.91,4.28-17.92,14.18-31.59,30.44-40.71s31.11-19.89,46.27-30.48c18.71-13.06,38.85-23.88,58.46-35.53Q553.57,453,564,447.06c1.86-1.08,3.8-3.1,6.22-.85C574.35,477.68,565.45,507.22,556.09,536.48Z" transform="translate(-45.74 -180.31)"/><path class="cls-3" d="M786.3,1231.12c-43.16-34.32-85.72-69.26-123.19-109.84-17-18.37-32.43-37.83-44.73-59.72-8.27-14.73-19.18-27.13-34.1-35.55-18.15-10.23-37.38-12-57.42-7.07-.32.08-.64.2-1,.29-3.61,1.09-7.22,1.87-10.24-1.28s-2.07-6.6-.87-10.23c9.66-29.49,18.89-59.11,27-89.07,4.69-17.3,9.17-34.65,11.86-52.42,2.15-14.21-2.7-25.89-13-35.36-11.69-10.73-26.15-16.14-41.14-20.3-7.26-2-7.67-2.62-5.51-10.09,9.09-31.51,25.32-59.45,43.53-86.34,27.3-40.34,59.13-77,92.93-111.92,8.53-8.83,17-17.75,25.44-26.63l1.31,1.07c-2.09,9.49-4.28,19-6.24,28.47a878,878,0,0,0-13.82,96.15c-.41,4.47-.9,8.94-1.12,13.42-.6,12.57-6,22.84-14.35,32-14.39,15.9-30.5,29.65-49.07,40.43-3.37,2-5.64,4.21-4.34,8.37,1,3.36,4.6,4.67,8.65,3,21.8-9.21,41-21.83,54.81-41.62.54-.77.84-1.83,2.32-2.08-1,15.94-1,31.82-.58,47.69,1.11,39.47,5.11,78.59,14.87,117a34.41,34.41,0,0,1-.51,19.09c-6.33,20.78-17.45,39-29.92,56.52-1.06,1.49-2.17,3-3.23,4.44-1.65,2.32-1.85,4.75.33,6.74s4.59,1.66,6.8-.12a106.42,106.42,0,0,0,15.48-15.49c9.69-11.84,16.53-25.2,21.29-40.6,2.76,7.23,4.86,13.87,5.45,20.61,1.48,16.79,7.24,32.27,12.93,47.88,11.15,30.59,26.9,59.25,38.23,89.68,14.4,38.65,37.81,71.87,60.1,105.88C779,1219.73,782.63,1225.44,786.3,1231.12Z" transform="translate(-45.74 -180.31)"/><path class="cls-3" d="M799.46,1229.24c-3.58-6.25-6.61-12.49-10.49-18.14-17.84-26-30.59-54.72-45.6-82.23-6.61-12.11-15.67-22.7-21.56-35.27-8-17-13.93-34.82-19-52.88-7.26-25.92-17.1-50.94-26.09-76.26-.76-2.15-1.82-4.28-1.47-7.55A235.27,235.27,0,0,0,694,975.8c20.21,17.59,42.92,30.63,68.84,37.84,1.76.49,3.72,1.54,5.12-.11,2.49-2.95,0-4.41-2.21-5.77a650.5,650.5,0,0,1-59.33-42.16c-10.41-8.31-20.41-17.08-30.1-26.2-7.41-7-10.47-15.76-12-25.59-5.53-34.67-8.41-69.58-10.2-104.62-.69-13.37-3-26.65-4.63-40.82,4.16,5.45,7.71,10.4,11.56,15.1,12.67,15.45,26.83,29.09,45.9,36.51a63.16,63.16,0,0,0,8.59,2.51c1.95.46,4.15.69,5.17-1.69s-.74-3.67-2.41-4.82a267.58,267.58,0,0,1-31.12-24.93,242.75,242.75,0,0,1-26.75-29.56c-10.16-13.27-12.27-28.24-11-44.32,2.71-35.14,5.45-70.26,11.91-105,2.06-11.09,4.51-22.08,8.81-33.39,1.77,4.68,1.13,9,1.63,13.07,4.21,35,17.55,66.61,35,96.75a437.82,437.82,0,0,0,60.21,80.49c4.49,4.78,5.94,10.14,3.26,16-13.64,29.83-12.25,60-2.3,90.38,11.88,36.29,32.7,67.35,56.7,96.53,8.89,10.8,18.38,21.05,28.28,30.93,3.86,3.85,3.76,7.93-.37,11-28.85,21.65-44.45,51.39-52.41,85.74-8.6,37.15-7.81,74.54-2.41,112,.78,5.42,1.74,10.81,2.59,16.22C800.21,1228.18,799.91,1228.46,799.46,1229.24Z" transform="translate(-45.74 -180.31)"/><path class="cls-2" d="M830.44,642.26c-53-.21-99.19-37.57-108.38-87.72-9.9-54,20.4-105.51,72.49-123.11,58-19.59,121,10.58,141.14,67.64,20.76,58.75-15.35,124.52-76.62,139.64A125,125,0,0,1,830.44,642.26Z" transform="translate(-45.74 -180.31)"/><path class="cls-2" d="M668.18,227.78c42.91.05,87.44,34.79,99.45,84.86,10.64,44.38-9.92,91.47-50.54,115.71-47,28-108.45,18.49-143.89-22.
32-45.48-52.36-30-132.85,31.56-164.92C621.75,232.27,639.73,227.81,668.18,227.78Z" transform="translate(-45.74 -180.31)"/><path class="cls-4" d="M1254.56,1209.18c-1.59,2.11-2.58,6-5.3,5.56s-1-4.6-2.14-6.83a5.41,5.41,0,0,1-.25-1.43C1248.62,1209.7,1251.54,1209.6,1254.56,1209.18Z" transform="translate(-45.74 -180.31)"/><path class="cls-5" d="M801.68,1232.78c-1,6.27-2.46,7.24-9.18,5.51C797.2,1238.11,799.59,1236.2,801.68,1232.78Z" transform="translate(-45.74 -180.31)"/><path class="cls-6" d="M908.16,222.92c0,7.44-3.87,12.7-11.29,15.19-5.67,1.89-11.48,3.37-17.08,5.43-18.83,7-33.83,19.1-45.24,35.36a15,15,0,0,1-20.06,4.78c-6.92-3.95-9.42-12.05-5.8-19.91,9.77-21.16,23.39-39,44.66-49.84,13.13-6.71,27.08-8.61,41.61-6.61C902.81,208.41,908.19,214.85,908.16,222.92Z" transform="translate(-45.74 -180.31)"/><path class="cls-6" d="M761.8,521.92c-7.57,0-13.14-5.52-12.31-11.89,3.77-29,21.89-48.64,48.63-53.1,7.18-1.19,13,2,14.87,7.84,2.17,6.68-.47,12.69-7.15,16.16a56.43,56.43,0,0,1-5.81,2.81c-14.58,5.5-23.19,16.63-28.72,30.56C769.36,519.2,766,521.73,761.8,521.92Z" transform="translate(-45.74 -180.31)"/><path class="cls-6" d="M573.14,319.61c.78-21.38,7.31-39.81,27-51.2,9.36-5.43,19.7-7.79,30.45-8.31a23.29,23.29,0,0,1,16.2,5.34c5,4.11,5.42,9.32,1.24,14.32a24.34,24.34,0,0,1-7.11,5.38c-19.64,11-35.87,25.6-47.24,45.25-3.15,5.45-7.26,7.46-12.25,6.2-5.34-1.35-8-5.1-8.23-11.5C573.1,323.27,573.14,321.44,573.14,319.61Z" transform="translate(-45.74 -180.31)"/></svg>